<?xml version="1.0" standalone="no"?><!DOCTYPE svg PUBLIC "-//W3C//DTD SVG 1.1//EN" "http://www.w3.org/Graphics/SVG/1.1/DTD/svg11.dtd"><svg class="icon" width="16px" height="16.00px" viewBox="0 0 1024 1024" version="1.1" xmlns="http://www.w3.org/2000/svg"><path fill="#eeb174" d="M914.2 386c-24.8-108.4-96-198.2-191.6-245.6V103.6c0-18.8-15.2-34.2-34-34.2s-34 15.4-34 34.2v11.2c-1.8-0.4-3.8-1-5.6-1.4-91.4-22-186.4-22-277.6 0-2 0.4-3.8 1-5.6 1.4v-11.2c0-18.8-15.2-34.2-34-34.2s-34 15.4-34 34.2v36.6c-96 47.6-167.4 137.2-192 245.8-21.4 93.6-21.4 190.8 0 284.4 30.8 134.8 133.4 240.8 265.4 272.6 91.2 22 186.4 22 277.6 0 132.2-31.8 234.8-137.8 265.4-272.6 21.4-93.6 21.4-190.8 0-284.4z m-282.6 98.2l-125.8 148.4c-5.6 6.6-13.6 10.4-22.2 10.4-8.6 0.2-16.8-3.4-22.4-9.6l-72-79.2c-11-12.2-10.2-31 2-42s31-10.2 42 2l49.2 54.2 104-122.6c10.6-12.6 29.4-14 41.8-3.4 12.4 10.6 14 29.2 3.4 41.8z"  /></svg>