<?xml version="1.0" standalone="no"?><!DOCTYPE svg PUBLIC "-//W3C//DTD SVG 1.1//EN" "http://www.w3.org/Graphics/SVG/1.1/DTD/svg11.dtd"><svg class="icon" width="16px" height="16.00px" viewBox="0 0 1024 1024" version="1.1" xmlns="http://www.w3.org/2000/svg"><path fill="#eeb174" d="M472.2 403h11.2v68.6l-19-6.8c-10.2-3.6-19-15-19-30.2 0.2-19.8 14.4-31.6 26.8-31.6zM540.4 621v-68.6l19 6.8c10.2 3.6 19 15 19 30.2 0 19.8-14.2 31.6-26.6 31.6h-11.4z"  /><path fill="#eeb174" d="M370 105.8c93.6-20.6 190.4-20.6 284 0l19.6 4.4c130.6 28.8 233.6 128.8 265.8 258 23.6 94.4 23.6 193.2 0 287.6-32.2 129.2-135.2 229.2-265.8 258l-19.6 4.4a660.28 660.28 0 0 1-284 0l-19.6-4.4c-130.6-28.8-233.6-128.8-265.8-258-23.6-94.4-23.6-193.2 0-287.6 32.2-129.2 135.2-229.2 265.8-258l19.6-4.4z m170.4 217.4c0-15.6-12.6-28.4-28.4-28.4-15.6 0-28.4 12.6-28.4 28.4v23.2h-11.2c-48.4 0-83.6 41.8-83.6 88.2 0 36.4 21.6 70.8 56.4 83.4l38.4 14v89.2h-3.2c-17 0-34.8-15.6-34.8-40.4 0-15.6-12.6-28.2-28.4-28.2-15.6 0-28.4 12.6-28.4 28.2 0 51.2 38.8 97 91.6 97h3.2v23.2c0 15.6 12.8 28.4 28.4 28.4 15.8 0 28.4-12.6 28.4-28.4v-23.2h11.2c48.4 0 83.6-41.8 83.6-88.2 0-36.4-21.6-70.8-56.4-83.4l-38.4-13.8v-89.2h3.2c17 0 34.8 15.6 34.8 40.4 0 15.6 12.6 28.4 28.4 28.4 15.6 0 28.4-12.6 28.4-28.4 0-51.2-38.8-97-91.6-97h-3.2v-23.4z"  /></svg>